<?xml version="1.0" encoding="utf-8"?>
<!-- Generator: Adobe Illustrator 27.5.0, SVG Export Plug-In . SVG Version: 6.00 Build 0)  -->
<svg version="1.1" id="Layer_1" xmlns="http://www.w3.org/2000/svg" xmlns:xlink="http://www.w3.org/1999/xlink" x="0px" y="0px"
	 viewBox="0 0 1200 1200" style="enable-background:new 0 0 1200 1200;" xml:space="preserve">
<style type="text/css">
	.st0{stroke:#000000;stroke-miterlimit:10;}
	.st1{fill:#FF204E;stroke:#FF204E;stroke-miterlimit:10;}
</style>
<polygon class="st0" points="514.7,890.1 295.7,536.1 303.7,543.1 218.7,234.1 300.7,345.1 254.7,232.1 337.7,380.1 307.7,353.1 
	406.7,497.1 503.7,573.1 569.7,687.1 635.7,572.1 728.7,498.1 817.7,364.1 802.7,375.1 887.1,232.1 840.7,345.1 922.7,236.1 
	836.7,541.1 845.7,533.1 626.1,890.1 637.7,847.1 651.2,784.8 666.7,695.1 675.7,630.1 681.7,575.1 642.7,606.1 570.7,715.5 
	496.7,606.1 458.7,574.1 464.7,629.1 474.7,695.1 489.7,780.1 503.7,846.1 "/>
<polygon class="st1" points="570.1,686.4 635.7,571.1 728.7,498.1 816.1,366.5 817.7,364.1 798.7,379.1 887.7,230.1 570.1,548.8 
	255.1,232.9 340.7,384.1 308.5,354.2 406.7,496.1 504.7,573.1 "/>
</svg>
